<svg width="200" height="200" version="1.1" xmlns="http://www.w3.org/2000/svg"><path fill="rgb(11,11,11)" stroke="rgb(11,11,11)" stroke-width="1" opacity="0.20784313725490197" d="M 109.5 12 L 117 12.5 L 109.5 13 L 109.5 12 Z "></path><path fill="rgb(11,11,11)" stroke="rgb(11,11,11)" stroke-width="1" opacity="0.20784313725490197" d="M 121.5 14 L 124.5 18 L 121.5 14 Z "></path><path fill="rgb(11,11,11)" stroke="rgb(11,11,11)" stroke-width="1" opacity="0.20784313725490197" d="M 98.5 16 L 97.5 18 L 95.5 19 L 96.5 17 L 98.5 16 Z "></path><path fill="rgb(11,11,11)" stroke="rgb(11,11,11)" stroke-width="1" opacity="0.20784313725490197" d="M 93.5 19 L 90.5 23 L 93.5 19 Z "></path><path fill="rgb(11,11,11)" stroke="rgb(11,11,11)" stroke-width="1" opacity="0.20784313725490197" d="M 112.5 19 L 118 19.5 L 112.5 20 L 112.5 19 Z "></path><path fill="rgb(11,11,11)" stroke="rgb(11,11,11)" stroke-width="1" opacity="0.20784313725490197" d="M 110.5 20 L 108.5 23 L 110.5 20 Z "></path><path fill="rgb(11,11,11)" stroke="rgb(11,11,11)" stroke-width="1" opacity="0.20784313725490197" d="M 119.5 20 L 121.5 23 L 119.5 20 Z "></path><path fill="rgb(11,11,11)" stroke="rgb(11,11,11)" stroke-width="1" opacity="0.20784313725490197" d="M 126.5 22 L 127 25.5 L 126 25.5 L 126.5 22 Z "></path><path fill="rgb(11,11,11)" stroke="rgb(11,11,11)" stroke-width="1" opacity="0.20784313725490197" d="M 89.5 24 L 88.5 26 L 89.5 24 Z "></path><path fill="rgb(11,11,11)" stroke="rgb(11,11,11)" stroke-width="1" opacity="0.20784313725490197" d="M 107.5 24 L 108 34.5 L 107 34.5 L 107.5 24 Z "></path><path fill="rgb(11,11,11)" stroke="rgb(11,11,11)" stroke-width="1" opacity="0.20784313725490197" d="M 122.5 24 L 123.5 26 L 122.5 24 Z "></path><path fill="rgb(11,11,11)" stroke="rgb(11,11,11)" stroke-width="1" opacity="0.20784313725490197" d="M 120.5 26 L 122 26.5 L 119.5 28 L 120.5 26 Z "></path><path fill="rgb(11,11,11)" stroke="rgb(11,11,11)" stroke-width="1" opacity="0.20784313725490197" d="M 128.5 26 L 131 27.5 L 129.5 27 L 128.5 26 Z "></path><path fill="rgb(11,11,11)" stroke="rgb(11,11,11)" stroke-width="1" opacity="0.20784313725490197" d="M 116.5 31 L 117 33.5 L 116 33.5 L 116.5 31 Z "></path><path fill="rgb(11,11,11)" stroke="rgb(11,11,11)" stroke-width="1" opacity="0.20784313725490197" d="M 133.5 31 L 134 33.5 L 133 33.5 L 133.5 31 Z "></path><path fill="rgb(11,11,11)" stroke="rgb(11,11,11)" stroke-width="1" opacity="0.20784313725490197" d="M 65.5 33 L 63.5 36 L 65.5 33 Z "></path><path fill="rgb(11,11,11)" stroke="rgb(11,11,11)" stroke-width="1" opacity="0.20784313725490197" d="M 117.5 35 L 119.5 38 L 117.5 35 Z "></path><path fill="rgb(11,11,11)" stroke="rgb(11,11,11)" stroke-width="1" opacity="0.20784313725490197" d="M 132.5 35 L 130.5 38 L 132.5 35 Z "></path><path fill="rgb(11,11,11)" stroke="rgb(11,11,11)" stroke-width="1" opacity="0.20784313725490197" d="M 62.5 37 L 62 38.5 L 61.5 40 L 61 38.5 L 62.5 37 Z "></path><path fill="rgb(11,11,11)" stroke="rgb(11,11,11)" stroke-width="1" opacity="0.20784313725490197" d="M 71.5 38 L 75 38.5 Q 69.4 38.4 68 42.5 L 67.5 44 L 67 42.5 L 71.5 38 Z "></path><path fill="rgb(11,11,11)" stroke="rgb(11,11,11)" stroke-width="1" opacity="0.20784313725490197" d="M 79.5 40 L 81.5 43 L 79.5 40 Z "></path><path fill="rgb(11,11,11)" stroke="rgb(11,11,11)" stroke-width="1" opacity="0.20784313725490197" d="M 119.5 40 L 122 40.5 L 119.5 41 L 119.5 40 Z "></path><path fill="rgb(11,11,11)" stroke="rgb(11,11,11)" stroke-width="1" opacity="0.20784313725490197" d="M 128.5 40 L 131 40.5 L 128.5 41 L 128.5 40 Z "></path><path fill="rgb(11,11,11)" stroke="rgb(11,11,11)" stroke-width="1" opacity="0.20784313725490197" d="M 108.5 42 L 110 46.5 L 108 47 L 108.5 42 Z "></path><path fill="rgb(11,11,11)" stroke="rgb(11,11,11)" stroke-width="1" opacity="0.20784313725490197" d="M 136.5 42 L 137.5 44 L 136.5 42 Z "></path><path fill="rgb(11,11,11)" stroke="rgb(11,11,11)" stroke-width="1" opacity="0.20784313725490197" d="M 112.5 43 L 111.5 45 L 112.5 43 Z "></path><path fill="rgb(11,11,11)" stroke="rgb(11,11,11)" stroke-width="1" opacity="0.20784313725490197" d="M 139.5 44 L 141.5 47 L 139.5 44 Z "></path><path fill="rgb(11,11,11)" stroke="rgb(11,11,11)" stroke-width="1" opacity="0.20784313725490197" d="M 122.5 48 L 129 48.5 L 122.5 49 L 122.5 48 Z "></path><path fill="rgb(11,11,11)" stroke="rgb(11,11,11)" stroke-width="1" opacity="0.20784313725490197" d="M 117.5 50 L 116.5 52 L 117.5 50 Z "></path><path fill="rgb(11,11,11)" stroke="rgb(11,11,11)" stroke-width="1" opacity="0.20784313725490197" d="M 133.5 50 L 136.5 54 L 133.5 50 Z "></path><path fill="rgb(11,11,11)" stroke="rgb(11,11,11)" stroke-width="1" opacity="0.20784313725490197" d="M 60.5 53 L 59 55.5 L 58.5 57 L 58 55.5 L 60.5 53 Z "></path><path fill="rgb(11,11,11)" stroke="rgb(11,11,11)" stroke-width="1" opacity="0.20784313725490197" d="M 71.5 53 Q 76 54 75 60.5 L 74 60.5 L 74 56.5 L 71.5 53 Z "></path><path fill="rgb(11,11,11)" stroke="rgb(11,11,11)" stroke-width="1" opacity="0.20784313725490197" d="M 114.5 55 L 115 57.5 L 114 57.5 L 114.5 55 Z "></path><path fill="rgb(11,11,11)" stroke="rgb(11,11,11)" stroke-width="1" opacity="0.20784313725490197" d="M 58.5 61 L 61.5 65 L 58.5 61 Z "></path><path fill="rgb(11,11,11)" stroke="rgb(11,11,11)" stroke-width="1" opacity="0.20784313725490197" d="M 73.5 62 L 72.5 64 L 73.5 62 Z "></path><path fill="rgb(11,11,11)" stroke="rgb(11,11,11)" stroke-width="1" opacity="0.20784313725490197" d="M 130.5 63 L 128.5 66 L 130.5 63 Z "></path><path fill="rgb(11,11,11)" stroke="rgb(11,11,11)" stroke-width="1" opacity="0.20784313725490197" d="M 141.5 63 L 143.5 66 L 141.5 63 Z "></path><path fill="rgb(11,11,11)" stroke="rgb(11,11,11)" stroke-width="1" opacity="0.20784313725490197" d="M 64.5 65 L 68 65.5 L 64.5 66 L 64.5 65 Z "></path><path fill="rgb(11,11,11)" stroke="rgb(11,11,11)" stroke-width="1" opacity="0.20784313725490197" d="M 144.5 67 L 145 70.5 L 144 70.5 L 144.5 67 Z "></path><path fill="rgb(11,11,11)" stroke="rgb(11,11,11)" stroke-width="1" opacity="0.20784313725490197" d="M 143.5 72 L 142.5 74 L 143.5 72 Z "></path><path fill="rgb(11,11,11)" stroke="rgb(11,11,11)" stroke-width="1" opacity="0.20784313725490197" d="M 134.5 75 L 139 75.5 L 134.5 76 L 134.5 75 Z "></path><path fill="rgb(11,11,11)" stroke="rgb(11,11,11)" stroke-width="1" opacity="0.20784313725490197" d="M 80.5 84 L 81.5 86 L 80.5 84 Z "></path><path fill="rgb(11,11,11)" stroke="rgb(11,11,11)" stroke-width="1" opacity="0.20784313725490197" d="M 97.5 86 L 104 86.5 Q 102.7 89.3 101.5 87 Q 96.5 88 97.5 86 Z "></path><path fill="rgb(11,11,11)" stroke="rgb(11,11,11)" stroke-width="1" opacity="0.20784313725490197" d="M 90.5 113 L 91.5 115 L 90.5 113 Z "></path><path fill="rgb(1,1,1)" stroke="rgb(1,1,1)" stroke-width="1" opacity="0.9803921568627451" d="M 107.5 13 Q 121.5 10.5 125 18.5 L 126 26 L 132 28 L 133 34.5 Q 131.1 40.1 122.5 39 L 117 34.5 L 118 28 L 124 25.5 L 119.5 20 L 112.5 19 L 108 22.5 Q 105.3 26.3 107 34.5 L 108 35.5 L 108 47 L 110 47 Q 108.9 44.3 111.5 45 L 117.5 41 L 127.5 40 L 135.5 42 L 142 47.5 Q 145.2 50.8 144 58.5 L 141 63.5 Q 145.3 64.8 144 71.5 Q 141.5 76.5 132.5 75 L 129 73 L 128 66.5 Q 130.3 61.8 137.5 62 L 139 62.5 L 139 57.5 L 133.5 50 Q 129.9 47.1 122.5 48 L 116 51.5 Q 112.7 55.2 114 63.5 Q 115 70.5 120 73.5 L 120 76.5 L 113.5 81 L 99.5 83 L 98.5 82 L 87.5 81 L 80 75.5 L 85 65.5 L 86 54.5 L 84 46.5 L 79.5 40 L 71.5 38 Q 64.7 41.4 66 52 Q 71.6 52.1 74 56.5 Q 75.3 62.8 71.5 64 L 62.5 65 L 58 60.5 L 58 57.5 L 61.5 53 Q 64.1 53.8 63 50.5 Q 60 47.5 61 40.5 L 66.5 33 Q 70.1 30.1 77.5 31 L 86 34 Q 87.1 23.9 94.5 19 L 107.5 13 Z "></path><path fill="rgb(122,40,43)" stroke="rgb(122,40,43)" stroke-width="1" opacity="0.1607843137254902" d="M 118.5 27 L 117.5 29 L 118.5 27 Z "></path><path fill="rgb(122,40,43)" stroke="rgb(122,40,43)" stroke-width="1" opacity="0.1607843137254902" d="M 65.5 73 L 66 76.5 L 65 76.5 L 65.5 73 Z "></path><path fill="rgb(122,40,43)" stroke="rgb(122,40,43)" stroke-width="1" opacity="0.1607843137254902" d="M 94.5 86 L 97 86.5 L 94.5 87 L 94.5 86 Z "></path><path fill="rgb(122,40,43)" stroke="rgb(122,40,43)" stroke-width="1" opacity="0.1607843137254902" d="M 94.5 90 L 93.5 92 L 94.5 90 Z "></path><path fill="rgb(122,40,43)" stroke="rgb(122,40,43)" stroke-width="1" opacity="0.1607843137254902" d="M 83.5 91 L 86 92.5 L 84.5 92 L 83.5 91 Z "></path><path fill="rgb(122,40,43)" stroke="rgb(122,40,43)" stroke-width="1" opacity="0.1607843137254902" d="M 113.5 91 L 115 91.5 L 110.5 94 L 110.5 93 L 113.5 91 Z "></path><path fill="rgb(122,40,43)" stroke="rgb(122,40,43)" stroke-width="1" opacity="0.1607843137254902" d="M 29.5 95 L 39 95.5 L 29.5 96 L 29.5 95 Z "></path><path fill="rgb(122,40,43)" stroke="rgb(122,40,43)" stroke-width="1" opacity="0.1607843137254902" d="M 42.5 96 L 43.5 98 L 42.5 96 Z "></path><path fill="rgb(122,40,43)" stroke="rgb(122,40,43)" stroke-width="1" opacity="0.1607843137254902" d="M 20.5 114 L 23 115.5 L 21.5 116 L 20.5 114 Z "></path><path fill="rgb(122,40,43)" stroke="rgb(122,40,43)" stroke-width="1" opacity="0.1607843137254902" d="M 106.5 114 L 105.5 116 L 106.5 114 Z "></path><path fill="rgb(122,40,43)" stroke="rgb(122,40,43)" stroke-width="1" opacity="0.1607843137254902" d="M 37.5 119 L 38.5 121 L 37.5 119 Z "></path><path fill="rgb(122,40,43)" stroke="rgb(122,40,43)" stroke-width="1" opacity="0.1607843137254902" d="M 54.5 121 L 53.5 123 L 54.5 121 Z "></path><path fill="rgb(122,40,43)" stroke="rgb(122,40,43)" stroke-width="1" opacity="0.1607843137254902" d="M 57.5 121 L 56.5 123 L 57.5 121 Z "></path><path fill="rgb(122,40,43)" stroke="rgb(122,40,43)" stroke-width="1" opacity="0.1607843137254902" d="M 45.5 123 L 48 123.5 L 45.5 124 L 45.5 123 Z "></path><path fill="rgb(122,40,43)" stroke="rgb(122,40,43)" stroke-width="1" opacity="0.1607843137254902" d="M 74.5 125 L 73.5 127 L 74.5 125 Z "></path><path fill="rgb(122,40,43)" stroke="rgb(122,40,43)" stroke-width="1" opacity="0.1607843137254902" d="M 59.5 126 L 61 128.5 L 59 127.5 L 59.5 126 Z "></path><path fill="rgb(122,40,43)" stroke="rgb(122,40,43)" stroke-width="1" opacity="0.1607843137254902" d="M 82.5 129 L 83.5 131 L 82.5 129 Z "></path><path fill="rgb(122,40,43)" stroke="rgb(122,40,43)" stroke-width="1" opacity="0.1607843137254902" d="M 70.5 134 L 73 134.5 L 70 135.5 L 69.5 137 L 69 135.5 L 70.5 134 Z "></path><path fill="rgb(122,40,43)" stroke="rgb(122,40,43)" stroke-width="1" opacity="0.1607843137254902" d="M 174.5 137 L 170.5 142 L 174.5 137 Z "></path><path fill="rgb(122,40,43)" stroke="rgb(122,40,43)" stroke-width="1" opacity="0.1607843137254902" d="M 151.5 140 L 150.5 142 L 151.5 140 Z "></path><path fill="rgb(122,40,43)" stroke="rgb(122,40,43)" stroke-width="1" opacity="0.1607843137254902" d="M 75.5 141 L 76.5 143 L 75.5 141 Z "></path><path fill="rgb(122,40,43)" stroke="rgb(122,40,43)" stroke-width="1" opacity="0.1607843137254902" d="M 99.5 141 L 100.5 143 L 99.5 141 Z "></path><path fill="rgb(122,40,43)" stroke="rgb(122,40,43)" stroke-width="1" opacity="0.1607843137254902" d="M 178.5 141 L 173.5 147 L 178.5 141 Z "></path><path fill="rgb(122,40,43)" stroke="rgb(122,40,43)" stroke-width="1" opacity="0.1607843137254902" d="M 68.5 143 L 69.5 145 L 68.5 143 Z "></path><path fill="rgb(122,40,43)" stroke="rgb(122,40,43)" stroke-width="1" opacity="0.1607843137254902" d="M 83.5 143 L 85.5 146 L 83.5 143 Z "></path><path fill="rgb(122,40,43)" stroke="rgb(122,40,43)" stroke-width="1" opacity="0.1607843137254902" d="M 108.5 143 L 111 146.5 L 110 146.5 L 108.5 143 Z "></path><path fill="rgb(122,40,43)" stroke="rgb(122,40,43)" stroke-width="1" opacity="0.1607843137254902" d="M 126.5 143 L 125.5 145 L 126.5 143 Z "></path><path fill="rgb(122,40,43)" stroke="rgb(122,40,43)" stroke-width="1" opacity="0.1607843137254902" d="M 134.5 143 L 129.5 149 L 134.5 143 Z "></path><path fill="rgb(122,40,43)" stroke="rgb(122,40,43)" stroke-width="1" opacity="0.1607843137254902" d="M 73.5 146 L 76.5 150 L 73.5 146 Z "></path><path fill="rgb(122,40,43)" stroke="rgb(122,40,43)" stroke-width="1" opacity="0.1607843137254902" d="M 80.5 147 L 81.5 149 Q 78.7 149.7 80.5 147 Z "></path><path fill="rgb(122,40,43)" stroke="rgb(122,40,43)" stroke-width="1" opacity="0.1607843137254902" d="M 142.5 149 L 143.5 151 L 142.5 149 Z "></path><path fill="rgb(122,40,43)" stroke="rgb(122,40,43)" stroke-width="1" opacity="0.1607843137254902" d="M 159.5 149 L 157.5 152 L 159.5 149 Z "></path><path fill="rgb(122,40,43)" stroke="rgb(122,40,43)" stroke-width="1" opacity="0.1607843137254902" d="M 138.5 151 L 139.5 153 L 138.5 151 Z "></path><path fill="rgb(122,40,43)" stroke="rgb(122,40,43)" stroke-width="1" opacity="0.1607843137254902" d="M 133.5 152 L 132.5 154 L 133.5 152 Z "></path><path fill="rgb(122,40,43)" stroke="rgb(122,40,43)" stroke-width="1" opacity="0.1607843137254902" d="M 155.5 152 L 154.5 154 L 155.5 152 Z "></path><path fill="rgb(122,40,43)" stroke="rgb(122,40,43)" stroke-width="1" opacity="0.1607843137254902" d="M 181.5 152 L 180.5 154 L 181.5 152 Z "></path><path fill="rgb(122,40,43)" stroke="rgb(122,40,43)" stroke-width="1" opacity="0.1607843137254902" d="M 110.5 153 L 109.5 155 L 110.5 153 Z "></path><path fill="rgb(122,40,43)" stroke="rgb(122,40,43)" stroke-width="1" opacity="0.1607843137254902" d="M 159.5 154 L 163 155.5 L 161.5 155 Q 158.5 155.5 159.5 154 Z "></path><path fill="rgb(122,40,43)" stroke="rgb(122,40,43)" stroke-width="1" opacity="0.1607843137254902" d="M 114.5 157 L 113.5 159 L 114.5 157 Z "></path><path fill="rgb(122,40,43)" stroke="rgb(122,40,43)" stroke-width="1" opacity="0.1607843137254902" d="M 151.5 157 L 150.5 159 L 151.5 157 Z "></path><path fill="rgb(122,40,43)" stroke="rgb(122,40,43)" stroke-width="1" opacity="0.1607843137254902" d="M 163.5 157 L 162.5 159 L 163.5 157 Z "></path><path fill="rgb(122,40,43)" stroke="rgb(122,40,43)" stroke-width="1" opacity="0.1607843137254902" d="M 124.5 158 L 123.5 160 L 124.5 158 Z "></path><path fill="rgb(122,40,43)" stroke="rgb(122,40,43)" stroke-width="1" opacity="0.1607843137254902" d="M 158.5 159 L 161 159.5 L 158.5 160 L 158.5 159 Z "></path><path fill="rgb(122,40,43)" stroke="rgb(122,40,43)" stroke-width="1" opacity="0.1607843137254902" d="M 127.5 160 L 128.5 162 L 127.5 160 Z "></path><path fill="rgb(122,40,43)" stroke="rgb(122,40,43)" stroke-width="1" opacity="0.1607843137254902" d="M 116.5 161 L 117.5 163 L 116.5 161 Z "></path><path fill="rgb(122,40,43)" stroke="rgb(122,40,43)" stroke-width="1" opacity="0.1607843137254902" d="M 121.5 161 L 120.5 163 L 121.5 161 Z "></path><path fill="rgb(0,0,0)" stroke="rgb(0,0,0)" stroke-width="1" opacity="0" d="M 0 0 L 200 0 L 200 200 L 0 200 L 0 0 Z M 110 12 L 94 19 Q 87 24 86 33 L 81 31 L 69 31 L 67 32 L 61 39 L 61 49 L 62 50 Q 63 54 61 53 L 57 59 L 58 62 L 65 66 L 73 64 Q 76 62 75 57 Q 73 51 66 52 L 67 45 L 72 39 Q 77 38 80 41 L 85 53 L 84 65 L 80 65 L 70 69 L 65 74 L 65 77 L 70 81 L 80 85 Q 82 84 81 87 Q 84 88 83 85 L 86 87 L 86 88 L 90 88 L 90 91 L 93 92 L 87 94 L 85 91 Q 82 90 83 94 L 81 94 Q 84 108 93 117 Q 92 119 95 118 L 95 120 L 101 121 Q 111 112 116 99 L 115 91 L 112 93 L 106 92 L 106 91 Q 109 92 108 89 L 111 88 Q 113 89 112 86 L 116 87 Q 118 88 117 85 L 127 83 L 136 76 L 143 74 L 145 71 Q 146 65 142 64 L 145 57 L 142 47 Q 138 42 132 40 Q 115 37 110 46 L 108 41 L 108 24 L 112 20 L 120 21 L 123 26 L 119 27 Q 115 29 116 35 Q 119 41 130 39 L 134 34 L 133 30 Q 132 25 127 26 Q 128 20 125 18 Q 121 11 110 12 Z M 30 95 L 24 96 L 25 101 L 25 103 L 20 103 L 20 110 L 19 111 L 20 115 L 23 116 L 27 110 L 36 111 L 38 108 Q 37 104 31 105 L 32 101 L 45 102 L 44 98 Q 39 94 30 95 Z M 52 106 L 42 109 Q 36 111 37 120 L 46 124 L 54 123 L 55 122 L 55 114 L 57 111 L 56 108 Q 55 105 52 106 Z M 61 120 L 58 121 Q 53 122 54 130 Q 58 136 68 137 L 69 137 L 67 141 L 68 144 L 78 150 L 79 153 L 84 155 L 91 154 Q 95 153 93 146 L 93 144 L 98 147 Q 103 149 101 143 L 96 139 L 86 138 Q 82 139 83 144 L 87 146 Q 91 148 88 150 L 83 149 L 80 146 L 74 141 L 85 134 L 83 129 L 73 134 L 70 136 L 75 126 L 75 122 L 74 120 L 61 120 Z M 175 137 L 170 143 L 169 140 Q 168 137 164 138 L 162 147 L 162 154 L 155 154 L 160 150 L 160 146 L 158 142 L 155 140 L 152 140 L 149 145 L 146 146 L 146 160 L 148 160 L 149 161 L 152 158 L 159 160 L 167 158 L 169 152 L 174 154 Q 180 156 182 153 Q 183 149 181 148 L 178 149 Q 174 150 173 148 L 179 142 L 179 138 L 175 137 Z M 137 142 L 130 148 L 127 143 L 121 154 L 119 155 L 120 148 L 117 145 L 112 152 L 108 155 L 111 146 L 108 143 L 105 146 L 102 154 Q 101 159 103 161 L 106 162 L 109 162 L 115 158 L 116 162 Q 117 164 121 163 L 126 157 L 129 162 L 138 162 L 144 159 L 145 157 Q 145 150 141 147 L 141 143 L 137 142 Z "></path><path fill="rgb(0,0,0)" stroke="rgb(0,0,0)" stroke-width="1" opacity="0" d="M 120.5 49 Q 132.8 46.8 136 53.5 L 139 62 Q 130.8 60.5 128 65.5 Q 128.9 68.5 124.5 67 Q 121.5 64.2 116 65 L 115 54.5 L 117.5 51 L 120.5 49 Z "></path><path fill="rgb(0,0,0)" stroke="rgb(0,0,0)" stroke-width="1" opacity="0" d="M 96.5 87 L 102 87.5 Q 100.8 90.2 99.5 88 L 97.5 89 L 96.5 87 Z "></path><path fill="rgb(0,0,0)" stroke="rgb(0,0,0)" stroke-width="1" opacity="0" d="M 46.5 113 L 51 113 L 51 118 Q 44.5 119.3 42 115.5 L 46.5 113 Z "></path><path fill="rgb(0,0,0)" stroke="rgb(0,0,0)" stroke-width="1" opacity="0" d="M 63.5 125 L 69 126.5 L 66.5 131 L 60 127.5 Q 59.2 124.9 62.5 126 L 63.5 125 Z "></path><path fill="rgb(0,0,0)" stroke="rgb(0,0,0)" stroke-width="1" opacity="0" d="M 136.5 150 Q 138.8 149.3 138 151.5 Q 142.3 153.8 137.5 156 L 131.5 157 L 132 155.5 L 134 151 L 136.5 150 Z "></path><path fill="rgb(34,36,41)" stroke="rgb(34,36,41)" stroke-width="1" opacity="0.7843137254901961" d="M 84.5 61 L 85 64.5 L 81.5 66 L 81.5 65 L 84 65 L 84.5 61 Z "></path><path fill="rgb(34,36,41)" stroke="rgb(34,36,41)" stroke-width="1" opacity="0.7843137254901961" d="M 115.5 63 L 116 65 L 119 65.5 L 116.5 66 L 115.5 63 Z "></path><path fill="rgb(34,36,41)" stroke="rgb(34,36,41)" stroke-width="1" opacity="0.7843137254901961" d="M 68.5 70 L 67.5 72 L 68.5 70 Z "></path><path fill="rgb(34,36,41)" stroke="rgb(34,36,41)" stroke-width="1" opacity="0.7843137254901961" d="M 67.5 78 L 68.5 80 L 67.5 78 Z "></path><path fill="rgb(34,36,41)" stroke="rgb(34,36,41)" stroke-width="1" opacity="0.7843137254901961" d="M 132.5 78 L 131.5 80 L 132.5 78 Z "></path><path fill="rgb(34,36,41)" stroke="rgb(34,36,41)" stroke-width="1" opacity="0.7843137254901961" d="M 81.5 84 L 84 84.5 L 82.5 87 L 81.5 84 Z "></path><path fill="rgb(34,36,41)" stroke="rgb(34,36,41)" stroke-width="1" opacity="0.7843137254901961" d="M 117.5 84 L 119 84.5 L 115.5 86 L 115.5 85 L 117.5 84 Z "></path><path fill="rgb(34,36,41)" stroke="rgb(34,36,41)" stroke-width="1" opacity="0.7843137254901961" d="M 111 85 L 113 85.5 L 111.5 88 L 111 85 Z "></path><path fill="rgb(34,36,41)" stroke="rgb(34,36,41)" stroke-width="1" opacity="0.7843137254901961" d="M 93.5 86 L 94.5 88 L 93.5 86 Z "></path><path fill="rgb(34,36,41)" stroke="rgb(34,36,41)" stroke-width="1" opacity="0.7843137254901961" d="M 87.5 87 L 91 88.5 Q 90.2 91.1 93.5 90 L 97.5 89 L 97.5 90 L 94.5 92 L 90 89.5 Q 90.8 86.9 87.5 88 L 87.5 87 Z "></path><path fill="rgb(34,36,41)" stroke="rgb(34,36,41)" stroke-width="1" opacity="0.7843137254901961" d="M 108.5 87 L 107 89.5 Q 107.8 91.8 105.5 91 L 104 90.5 Q 103.3 92.8 105.5 92 L 105.5 93 L 102 90.5 L 101.5 89 L 100 89.5 L 101.5 88 L 105.5 90 L 108.5 87 Z "></path><path fill="rgb(34,36,41)" stroke="rgb(34,36,41)" stroke-width="1" opacity="0.7843137254901961" d="M 83.5 92 L 87 94.5 L 84.5 93 L 83.5 92 Z "></path><path fill="rgb(34,36,41)" stroke="rgb(34,36,41)" stroke-width="1" opacity="0.7843137254901961" d="M 113.5 92 L 112.5 94 L 113.5 92 Z "></path><path fill="rgb(34,36,41)" stroke="rgb(34,36,41)" stroke-width="1" opacity="0.7843137254901961" d="M 114.5 94 L 116 97.5 L 115 97.5 L 114.5 94 Z "></path><path fill="rgb(34,36,41)" stroke="rgb(34,36,41)" stroke-width="1" opacity="0.7843137254901961" d="M 86.5 106 L 87.5 108 L 86.5 106 Z "></path><path fill="rgb(34,36,41)" stroke="rgb(34,36,41)" stroke-width="1" opacity="0.7843137254901961" d="M 110.5 107 L 109.5 109 L 110.5 107 Z "></path><path fill="rgb(34,36,41)" stroke="rgb(34,36,41)" stroke-width="1" opacity="0.7843137254901961" d="M 90.5 112 L 91.5 114 L 90.5 112 Z "></path><path fill="rgb(34,36,41)" stroke="rgb(34,36,41)" stroke-width="1" opacity="0.7843137254901961" d="M 106.5 113 L 105.5 115 L 106.5 113 Z "></path><path fill="rgb(34,36,41)" stroke="rgb(34,36,41)" stroke-width="1" opacity="0.7843137254901961" d="M 92.5 115 L 96.5 120 L 92.5 115 Z "></path><path fill="rgb(34,36,41)" stroke="rgb(34,36,41)" stroke-width="1" opacity="0.7843137254901961" d="M 103.5 117 L 102.5 119 L 103.5 117 Z "></path><path fill="rgb(34,36,41)" stroke="rgb(34,36,41)" stroke-width="1" opacity="0.996078431372549" d="M 85.5 58 L 86 61.5 L 85 61.5 L 85.5 58 Z "></path><path fill="rgb(34,36,41)" stroke="rgb(34,36,41)" stroke-width="1" opacity="0.996078431372549" d="M 114.5 60 L 115 63.5 L 114 63.5 L 114.5 60 Z "></path><path fill="rgb(34,36,41)" stroke="rgb(34,36,41)" stroke-width="1" opacity="0.996078431372549" d="M 84.5 65 L 84 66.5 L 80 75.5 L 87.5 81 L 100.5 83 L 101.5 82 L 113.5 81 L 120 76.5 L 120 73.5 Q 115.6 71.5 115 65.5 L 116.5 66 L 120.5 66 L 128 69.5 L 129 73 L 134 75.5 L 130.5 80 Q 122.6 84.9 111 85 Q 112.5 88.7 109.5 88 Q 108 85.5 106.5 89 L 104 89.5 L 104.5 91 L 102 89.5 L 104.5 93 L 112.5 94 L 114 93.5 L 115 98.5 Q 109.9 111.4 100.5 120 L 97.5 120 L 92 114.5 Q 85 106.3 82 95 Q 84.7 96.1 84 93.5 L 86.5 95 L 87.5 94 L 90.5 94 L 99.5 89 L 100.5 90 L 103.5 87 L 106 86.5 L 93.5 86 L 94.5 88 L 96 88.5 L 93.5 90 Q 91.4 86.6 86 86.5 L 86.5 85 Q 73.8 84.2 67 77.5 L 66 74.5 L 69.5 70 L 84.5 65 Z "></path><path fill="rgb(151,1,9)" stroke="rgb(151,1,9)" stroke-width="1" opacity="0.5882352941176471" d="M 25.5 96 L 25 97.5 L 24.5 99 L 24 97.5 L 25.5 96 Z "></path><path fill="rgb(151,1,9)" stroke="rgb(151,1,9)" stroke-width="1" opacity="0.5882352941176471" d="M 43.5 98 L 45 100.5 L 41.5 102 L 41.5 101 Q 44.8 102.1 44 99.5 L 43.5 98 Z "></path><path fill="rgb(151,1,9)" stroke="rgb(151,1,9)" stroke-width="1" opacity="0.5882352941176471" d="M 32.5 100 L 39 100.5 L 31.5 102 L 32.5 100 Z "></path><path fill="rgb(151,1,9)" stroke="rgb(151,1,9)" stroke-width="1" opacity="0.5882352941176471" d="M 25.5 102 L 24.5 104 L 25.5 102 Z "></path><path fill="rgb(151,1,9)" stroke="rgb(151,1,9)" stroke-width="1" opacity="0.5882352941176471" d="M 21.5 103 L 20.5 105 L 21.5 103 Z "></path><path fill="rgb(151,1,9)" stroke="rgb(151,1,9)" stroke-width="1" opacity="0.5882352941176471" d="M 30.5 103 L 30.5 105 L 34 105.5 L 30.5 106 Q 27.5 104.5 30.5 103 Z "></path><path fill="rgb(151,1,9)" stroke="rgb(151,1,9)" stroke-width="1" opacity="0.5882352941176471" d="M 53.5 106 L 56 107.5 L 55.5 109 L 55 107 L 53.5 106 Z "></path><path fill="rgb(151,1,9)" stroke="rgb(151,1,9)" stroke-width="1" opacity="0.5882352941176471" d="M 48.5 107 L 51 107.5 L 48.5 108 L 48.5 107 Z "></path><path fill="rgb(151,1,9)" stroke="rgb(151,1,9)" stroke-width="1" opacity="0.5882352941176471" d="M 26.5 109 L 28 109.5 L 24.5 112 L 26.5 109 Z "></path><path fill="rgb(151,1,9)" stroke="rgb(151,1,9)" stroke-width="1" opacity="0.5882352941176471" d="M 40.5 110 L 38 113.5 L 37.5 115 L 37 113.5 L 40.5 110 Z "></path><path fill="rgb(151,1,9)" stroke="rgb(151,1,9)" stroke-width="1" opacity="0.5882352941176471" d="M 46.5 112 Q 51 111 52 113.5 Q 53 118 50.5 119 L 45 118.5 L 51 118 L 51 113 L 46.5 113 L 46.5 112 Z "></path><path fill="rgb(151,1,9)" stroke="rgb(151,1,9)" stroke-width="1" opacity="0.5882352941176471" d="M 42.5 114 L 42 115.5 Q 41.3 117.8 43.5 117 L 43.5 118 L 41 116.5 L 42.5 114 Z "></path><path fill="rgb(151,1,9)" stroke="rgb(151,1,9)" stroke-width="1" opacity="0.5882352941176471" d="M 37.5 117 L 40 120.5 L 37 118.5 L 37.5 117 Z "></path><path fill="rgb(151,1,9)" stroke="rgb(151,1,9)" stroke-width="1" opacity="0.5882352941176471" d="M 54.5 118 L 55 120.5 L 54 120.5 L 54.5 118 Z "></path><path fill="rgb(151,1,9)" stroke="rgb(151,1,9)" stroke-width="1" opacity="0.5882352941176471" d="M 61.5 120 L 73.5 120 L 75 121.5 Q 75.8 125.3 73.5 126 L 74 124.5 L 73.5 121 L 61.5 121 L 61.5 120 Z "></path><path fill="rgb(151,1,9)" stroke="rgb(151,1,9)" stroke-width="1" opacity="0.5882352941176471" d="M 48.5 123 L 51 123.5 L 48.5 124 L 48.5 123 Z "></path><path fill="rgb(151,1,9)" stroke="rgb(151,1,9)" stroke-width="1" opacity="0.5882352941176471" d="M 63.5 124 L 67 124.5 L 63.5 125 L 63.5 124 Z "></path><path fill="rgb(151,1,9)" stroke="rgb(151,1,9)" stroke-width="1" opacity="0.5882352941176471" d="M 54.5 125 L 55 128.5 L 54 128.5 L 54.5 125 Z "></path><path fill="rgb(151,1,9)" stroke="rgb(151,1,9)" stroke-width="1" opacity="0.5882352941176471" d="M 65.5 131 L 68 131.5 L 65.5 132 L 65.5 131 Z "></path><path fill="rgb(151,1,9)" stroke="rgb(151,1,9)" stroke-width="1" opacity="0.5882352941176471" d="M 73.5 134 L 72.5 136 L 73.5 134 Z "></path><path fill="rgb(151,1,9)" stroke="rgb(151,1,9)" stroke-width="1" opacity="0.5882352941176471" d="M 70.5 136 L 69 138.5 L 68.5 140 L 68 138.5 L 70.5 136 Z "></path><path fill="rgb(151,1,9)" stroke="rgb(151,1,9)" stroke-width="1" opacity="0.5882352941176471" d="M 77.5 137 L 76.5 139 L 74 140.5 L 74.5 142 Q 71 140 75.5 138 L 77.5 137 Z "></path><path fill="rgb(151,1,9)" stroke="rgb(151,1,9)" stroke-width="1" opacity="0.5882352941176471" d="M 175.5 137 L 179 139.5 L 174.5 145 L 178 140.5 L 176.5 138 L 168.5 145 L 168 142.5 L 168.5 141 L 169.5 143 L 175.5 137 Z "></path><path fill="rgb(151,1,9)" stroke="rgb(151,1,9)" stroke-width="1" opacity="0.5882352941176471" d="M 86.5 138 L 89 138.5 L 86.5 139 L 86.5 138 Z "></path><path fill="rgb(151,1,9)" stroke="rgb(151,1,9)" stroke-width="1" opacity="0.5882352941176471" d="M 165.5 138 L 167 138.5 L 164.5 140 L 165.5 138 Z "></path><path fill="rgb(151,1,9)" stroke="rgb(151,1,9)" stroke-width="1" opacity="0.5882352941176471" d="M 91.5 139 L 94 139.5 L 91.5 140 L 91.5 139 Z "></path><path fill="rgb(151,1,9)" stroke="rgb(151,1,9)" stroke-width="1" opacity="0.5882352941176471" d="M 152.5 140 L 154 140.5 L 150.5 143 L 152.5 140 Z "></path><path fill="rgb(151,1,9)" stroke="rgb(151,1,9)" stroke-width="1" opacity="0.5882352941176471" d="M 83.5 141 L 88 146.5 L 83 142.5 L 83.5 141 Z "></path><path fill="rgb(151,1,9)" stroke="rgb(151,1,9)" stroke-width="1" opacity="0.5882352941176471" d="M 155.5 141 L 158.5 145 L 155.5 141 Z "></path><path fill="rgb(151,1,9)" stroke="rgb(151,1,9)" stroke-width="1" opacity="0.5882352941176471" d="M 163.5 141 L 164 144.5 L 163 144.5 L 163.5 141 Z "></path><path fill="rgb(151,1,9)" stroke="rgb(151,1,9)" stroke-width="1" opacity="0.5882352941176471" d="M 136.5 142 L 129 150.5 L 128 154 L 126 153.5 L 128 149 L 136.5 142 Z "></path><path fill="rgb(151,1,9)" stroke="rgb(151,1,9)" stroke-width="1" opacity="0.5882352941176471" d="M 138.5 142 Q 141.5 142.5 141 146.5 L 140 146.5 L 138.5 142 Z "></path><path fill="rgb(151,1,9)" stroke="rgb(151,1,9)" stroke-width="1" opacity="0.5882352941176471" d="M 77.5 143 L 78.5 145 L 77.5 143 Z "></path><path fill="rgb(151,1,9)" stroke="rgb(151,1,9)" stroke-width="1" opacity="0.5882352941176471" d="M 90.5 143 L 93 143.5 Q 90.9 146.8 90.5 143 Z "></path><path fill="rgb(151,1,9)" stroke="rgb(151,1,9)" stroke-width="1" opacity="0.5882352941176471" d="M 100.5 143 L 101 146.5 L 100 146.5 L 100.5 143 Z "></path><path fill="rgb(151,1,9)" stroke="rgb(151,1,9)" stroke-width="1" opacity="0.5882352941176471" d="M 107.5 143 L 106.5 145 L 107.5 143 Z "></path><path fill="rgb(151,1,9)" stroke="rgb(151,1,9)" stroke-width="1" opacity="0.5882352941176471" d="M 149.5 144 L 148.5 146 L 149.5 144 Z "></path><path fill="rgb(151,1,9)" stroke="rgb(151,1,9)" stroke-width="1" opacity="0.5882352941176471" d="M 116.5 145 L 119 146.5 L 117.5 146 L 115.5 147 L 116.5 145 Z "></path><path fill="rgb(151,1,9)" stroke="rgb(151,1,9)" stroke-width="1" opacity="0.5882352941176471" d="M 153.5 145 L 154.5 147 L 152 146.5 L 153.5 145 Z "></path><path fill="rgb(151,1,9)" stroke="rgb(151,1,9)" stroke-width="1" opacity="0.5882352941176471" d="M 92.5 146 L 93 150.5 L 92 150.5 L 92.5 146 Z "></path><path fill="rgb(151,1,9)" stroke="rgb(151,1,9)" stroke-width="1" opacity="0.5882352941176471" d="M 146.5 146 L 147 151.5 L 146 151.5 L 146.5 146 Z "></path><path fill="rgb(151,1,9)" stroke="rgb(151,1,9)" stroke-width="1" opacity="0.5882352941176471" d="M 159.5 146 L 160 148.5 L 159 148.5 L 159.5 146 Z "></path><path fill="rgb(151,1,9)" stroke="rgb(151,1,9)" stroke-width="1" opacity="0.5882352941176471" d="M 162.5 147 L 163 154.5 L 162 154.5 L 162.5 147 Z "></path><path fill="rgb(151,1,9)" stroke="rgb(151,1,9)" stroke-width="1" opacity="0.5882352941176471" d="M 114.5 148 L 113.5 150 L 114.5 148 Z "></path><path fill="rgb(151,1,9)" stroke="rgb(151,1,9)" stroke-width="1" opacity="0.5882352941176471" d="M 179.5 148 L 182 149.5 L 180.5 149 L 179.5 148 Z "></path><path fill="rgb(151,1,9)" stroke="rgb(151,1,9)" stroke-width="1" opacity="0.5882352941176471" d="M 135.5 149 L 137 149.5 L 132.5 153 L 135.5 149 Z "></path><path fill="rgb(151,1,9)" stroke="rgb(151,1,9)" stroke-width="1" opacity="0.5882352941176471" d="M 138.5 150 L 139.5 152 L 138.5 150 Z "></path><path fill="rgb(151,1,9)" stroke="rgb(151,1,9)" stroke-width="1" opacity="0.5882352941176471" d="M 142.5 150 Q 145.6 151.4 145 156.5 L 140.5 160 L 140.5 159 L 144 156.5 L 142.5 150 Z "></path><path fill="rgb(151,1,9)" stroke="rgb(151,1,9)" stroke-width="1" opacity="0.5882352941176471" d="M 112.5 151 L 111.5 153 L 112.5 151 Z "></path><path fill="rgb(151,1,9)" stroke="rgb(151,1,9)" stroke-width="1" opacity="0.5882352941176471" d="M 118.5 151 L 119 153.5 L 118 153.5 L 118.5 151 Z "></path><path fill="rgb(151,1,9)" stroke="rgb(151,1,9)" stroke-width="1" opacity="0.5882352941176471" d="M 169.5 151 L 171 151.5 L 168.5 153 L 169.5 151 Z "></path><path fill="rgb(151,1,9)" stroke="rgb(151,1,9)" stroke-width="1" opacity="0.5882352941176471" d="M 91.5 152 L 90.5 154 L 89 153.5 L 91.5 152 Z "></path><path fill="rgb(151,1,9)" stroke="rgb(151,1,9)" stroke-width="1" opacity="0.5882352941176471" d="M 154.5 152 L 153.5 154 L 154.5 152 Z "></path><path fill="rgb(151,1,9)" stroke="rgb(151,1,9)" stroke-width="1" opacity="0.5882352941176471" d="M 107.5 153 L 109 155.5 L 107 156.5 L 107 154.5 L 107.5 153 Z "></path><path fill="rgb(151,1,9)" stroke="rgb(151,1,9)" stroke-width="1" opacity="0.5882352941176471" d="M 121.5 153 L 118.5 157 L 121.5 153 Z "></path><path fill="rgb(151,1,9)" stroke="rgb(151,1,9)" stroke-width="1" opacity="0.5882352941176471" d="M 175.5 153 L 180 153.5 L 175.5 154 L 175.5 153 Z "></path><path fill="rgb(151,1,9)" stroke="rgb(151,1,9)" stroke-width="1" opacity="0.5882352941176471" d="M 84.5 154 L 87 154.5 L 84.5 155 L 84.5 154 Z "></path><path fill="rgb(151,1,9)" stroke="rgb(151,1,9)" stroke-width="1" opacity="0.5882352941176471" d="M 102.5 154 L 103 157.5 L 102 157.5 L 102.5 154 Z "></path><path fill="rgb(151,1,9)" stroke="rgb(151,1,9)" stroke-width="1" opacity="0.5882352941176471" d="M 155.5 154 L 159 154.5 L 155.5 155 L 155.5 154 Z "></path><path fill="rgb(151,1,9)" stroke="rgb(151,1,9)" stroke-width="1" opacity="0.5882352941176471" d="M 167.5 154 L 168 155.5 L 164.5 158 L 162 157.5 Q 161.3 155.3 163.5 156 L 165.5 157 L 167.5 154 Z "></path><path fill="rgb(151,1,9)" stroke="rgb(151,1,9)" stroke-width="1" opacity="0.5882352941176471" d="M 125.5 155 Q 128.1 154.2 127 157.5 L 126 157.5 L 125.5 155 Z "></path><path fill="rgb(151,1,9)" stroke="rgb(151,1,9)" stroke-width="1" opacity="0.5882352941176471" d="M 138.5 155 L 137.5 157 L 136 156.5 L 138.5 155 Z "></path><path fill="rgb(151,1,9)" stroke="rgb(151,1,9)" stroke-width="1" opacity="0.5882352941176471" d="M 130.5 156 L 134 157.5 L 131.5 158 L 130.5 156 Z "></path><path fill="rgb(151,1,9)" stroke="rgb(151,1,9)" stroke-width="1" opacity="0.5882352941176471" d="M 113.5 157 L 111.5 160 L 113.5 157 Z "></path><path fill="rgb(151,1,9)" stroke="rgb(151,1,9)" stroke-width="1" opacity="0.5882352941176471" d="M 124.5 157 L 123.5 159 L 124.5 157 Z "></path><path fill="rgb(151,1,9)" stroke="rgb(151,1,9)" stroke-width="1" opacity="0.5882352941176471" d="M 154.5 158 L 157 158.5 L 154.5 159 L 154.5 158 Z "></path><path fill="rgb(151,1,9)" stroke="rgb(151,1,9)" stroke-width="1" opacity="0.5882352941176471" d="M 103.5 159 L 108 161.5 L 105.5 162 L 103.5 159 Z "></path><path fill="rgb(151,1,9)" stroke="rgb(151,1,9)" stroke-width="1" opacity="0.5882352941176471" d="M 127.5 159 L 131 161.5 L 129.5 162 L 127.5 159 Z "></path><path fill="rgb(150,1,8)" stroke="rgb(150,1,8)" stroke-width="1" opacity="0.9882352941176471" d="M 26.5 96 Q 37.4 94.7 43 97 L 44 101 L 32.5 100 L 29 104.5 Q 30.6 107.5 36 106 L 37 108.5 Q 35.3 111.8 28.5 110 L 26.5 109 L 22.5 115 L 20 113.5 L 21 106.5 Q 18.2 104.8 22.5 103 L 24.5 104 L 26 100.5 L 25 97.5 L 26.5 96 Z "></path><path fill="rgb(150,1,8)" stroke="rgb(150,1,8)" stroke-width="1" opacity="0.9882352941176471" d="M 51.5 107 Q 55.9 105.5 55 108.5 L 56 110.5 L 54 122 Q 51.6 123.7 45.5 123 L 38 118.5 L 37 115.5 L 41.5 110 L 51.5 107 Z M 47 112 L 43 114 L 41 117 Q 44 120 51 119 Q 53 118 52 114 Q 51 111 47 112 Z "></path><path fill="rgb(150,1,8)" stroke="rgb(150,1,8)" stroke-width="1" opacity="0.9882352941176471" d="M 60.5 121 L 73.5 121 L 74 124.5 L 70 135 L 65.5 136 Q 58.5 134.5 55 129.5 Q 53.8 123.3 57.5 122 L 60.5 121 Z M 64 124 L 58 127 Q 61 131 68 132 L 69 125 L 64 124 Z "></path><path fill="rgb(150,1,8)" stroke="rgb(150,1,8)" stroke-width="1" opacity="0.9882352941176471" d="M 82.5 130 L 84 133.5 L 73 140.5 L 79 145.5 L 80 148.5 Q 78.8 151.3 77.5 149 L 74.5 147 L 69 144 L 68 140.5 L 71.5 136 L 82.5 130 Z "></path><path fill="rgb(150,1,8)" stroke="rgb(150,1,8)" stroke-width="1" opacity="0.9882352941176471" d="M 175.5 138 L 178 139.5 L 172 147.5 L 176.5 150 L 180.5 149 Q 183.3 150.3 181 151.5 L 180.5 153 L 173.5 153 L 169.5 151 L 165.5 157 L 163 155.5 Q 161.6 144.6 165.5 139 L 169 140.5 L 168 144.5 L 175.5 138 Z "></path><path fill="rgb(150,1,8)" stroke="rgb(150,1,8)" stroke-width="1" opacity="0.9882352941176471" d="M 85.5 139 L 95.5 140 L 100 142 L 99.5 147 L 90.5 143 L 92 145.5 Q 93.5 151.5 90.5 153 L 82.5 154 L 80 153 L 81.5 149 L 82.5 150 L 90 150 L 84 142.5 L 84 140.5 L 85.5 139 Z "></path><path fill="rgb(150,1,8)" stroke="rgb(150,1,8)" stroke-width="1" opacity="0.9882352941176471" d="M 152.5 141 L 154.5 141 L 159 145.5 Q 160 150 157.5 151 L 153 153.5 Q 155.8 156.3 162 155 Q 164.3 161 157.5 159 L 150.5 156 L 148.5 160 Q 146.3 160.8 147 158.5 Q 144.8 157.3 146 152.5 L 147 146 L 150 144.5 L 152.5 141 Z M 154 145 L 151 149 L 152 150 L 155 148 L 154 145 Z "></path><path fill="rgb(150,1,8)" stroke="rgb(150,1,8)" stroke-width="1" opacity="0.9882352941176471" d="M 137.5 142 L 140 144.5 L 144 153.5 L 144 156.5 Q 140.1 161.6 131.5 162 L 127 158.5 Q 126.3 152.8 129 150.5 L 137.5 142 Z M 136 149 L 131 156 Q 129 157 132 158 L 138 157 L 141 154 L 140 152 Q 140 149 136 149 Z "></path><path fill="rgb(150,1,8)" stroke="rgb(150,1,8)" stroke-width="1" opacity="0.9882352941176471" d="M 107.5 144 L 110 145.5 L 107 156.5 L 113 151.5 L 116.5 146 L 119 147.5 L 118 156.5 L 122 153.5 L 126.5 144 L 129 148.5 L 120.5 162 Q 116.1 163.5 117 160.5 L 114.5 157 L 108.5 161 L 105.5 161 Q 101.8 159.8 103 153.5 L 107.5 144 Z "></path></svg>